<svg xmlns="http://www.w3.org/2000/svg" viewBox="0 0 252.75 154.50" width="252.75" height="154.50">
  <path d="M 33.25 24.75 L 26.75 41.25 L 8.00 142.50 L 10.25 146.25 L 191.50 146.25 L 208.50 140.50 L 220.50 128.00 L 226.00 111.50 L 244.25 13.50 L 242.75 8.00 L 63.50 8.00 L 48.50 11.75 Z" fill="#F8CB11"/>
  <path d="M 58.25 27.00 L 57.50 27.25 L 57.00 27.75 L 56.75 28.75 L 56.50 31.50 L 56.00 32.75 L 55.75 35.75 L 55.50 37.00 L 54.75 39.25 L 54.50 40.75 L 54.50 42.25 L 53.75 44.75 L 53.50 46.00 L 53.50 47.50 L 52.75 50.25 L 52.75 51.75 L 52.50 53.00 L 51.75 55.00 L 51.50 58.25 L 50.75 60.50 L 50.50 61.75 L 50.50 63.00 L 50.25 64.25 L 49.75 65.25 L 49.75 67.50 L 49.50 69.00 L 49.00 70.00 L 48.75 71.00 L 48.75 72.50 L 48.50 73.75 L 47.75 76.25 L 47.75 77.50 L 46.75 81.00 L 46.75 83.25 L 46.50 84.50 L 46.00 85.75 L 45.75 87.00 L 45.75 88.50 L 45.50 90.00 L 44.75 92.25 L 44.50 95.00 L 44.25 96.25 L 43.75 97.25 L 43.75 99.50 L 43.50 100.75 L 43.00 101.75 L 42.75 102.75 L 42.75 104.25 L 42.25 105.50 L 42.25 106.75 L 41.75 108.00 L 41.50 109.50 L 41.50 111.00 L 41.25 112.50 L 40.75 113.50 L 40.75 115.50 L 39.75 118.75 L 39.75 120.75 L 39.00 122.75 L 38.75 124.00 L 38.50 126.25 L 38.75 127.25 L 39.25 127.50 L 40.00 127.50 L 41.25 127.25 L 52.75 127.50 L 55.50 127.25 L 56.00 126.75 L 56.00 125.25 L 56.25 124.00 L 57.00 121.50 L 57.25 119.00 L 57.75 117.75 L 58.00 116.50 L 58.25 113.50 L 58.75 112.50 L 59.00 111.25 L 59.00 109.25 L 59.25 107.75 L 60.00 106.00 L 60.25 104.50 L 60.25 103.00 L 60.50 101.75 L 61.00 100.50 L 61.25 99.00 L 61.25 97.25 L 61.75 96.25 L 62.00 95.00 L 62.00 93.50 L 62.25 91.75 L 62.50 91.25 L 63.25 90.50 L 64.00 90.25 L 74.00 90.25 L 75.25 90.00 L 76.50 89.50 L 77.75 89.50 L 80.25 88.50 L 81.25 88.50 L 82.00 88.25 L 83.50 87.00 L 84.50 86.75 L 85.00 86.50 L 85.75 86.00 L 86.50 85.50 L 88.50 83.75 L 91.00 81.00 L 92.00 80.25 L 92.25 79.75 L 92.25 79.25 L 92.75 78.50 L 93.75 77.25 L 94.50 75.75 L 95.25 73.50 L 95.50 73.00 L 96.00 72.50 L 96.25 72.00 L 96.25 71.00 L 97.25 68.50 L 97.50 67.50 L 97.75 66.50 L 98.00 63.50 L 98.25 62.25 L 99.00 60.50 L 99.25 58.75 L 99.25 57.00 L 99.75 56.25 L 100.00 54.75 L 100.25 53.25 L 100.50 51.50 L 100.75 49.75 L 101.00 47.00 L 101.00 43.75 L 100.75 41.00 L 100.50 39.75 L 100.25 38.75 L 100.00 37.75 L 99.25 36.00 L 99.00 35.50 L 97.75 34.00 L 97.75 33.50 L 95.00 30.75 L 92.75 29.75 L 92.00 29.00 L 91.50 28.75 L 90.75 28.75 L 90.00 28.25 L 89.00 28.00 L 87.00 27.50 L 85.75 27.25 L 84.00 27.00 Z M 72.50 43.25 L 79.75 43.25 L 81.00 43.50 L 81.50 43.75 L 82.75 45.00 L 83.00 45.50 L 83.25 46.25 L 83.25 50.50 L 82.50 54.75 L 82.25 56.25 L 81.75 57.00 L 81.50 60.00 L 80.75 62.00 L 80.50 63.25 L 80.25 66.50 L 80.00 67.50 L 79.75 68.25 L 79.25 69.50 L 78.50 71.00 L 78.00 71.75 L 76.75 73.00 L 76.00 73.50 L 75.25 74.00 L 74.50 74.25 L 69.25 74.50 L 67.00 74.50 L 66.25 73.75 L 66.00 73.25 L 66.00 72.75 L 66.25 71.25 L 67.00 69.25 L 67.25 67.50 L 67.25 65.75 L 68.00 63.50 L 68.00 61.75 L 68.25 60.25 L 69.00 58.25 L 69.50 55.50 L 70.25 51.50 L 70.25 50.00 L 70.50 48.75 L 71.00 48.00 L 71.00 45.75 L 71.25 44.25 L 72.00 43.50 Z" fill="#000000" fill-rule="evenodd"/>
  <path d="M 111.00 27.00 L 110.50 27.25 L 110.00 27.75 L 110.00 29.00 L 109.50 30.50 L 109.50 32.00 L 108.75 33.25 L 108.75 35.50 L 108.50 36.50 L 108.00 37.50 L 107.75 38.50 L 107.75 40.00 L 106.75 44.25 L 106.50 45.75 L 106.50 47.75 L 106.25 48.50 L 105.75 49.00 L 105.75 51.00 L 105.50 52.50 L 104.75 54.50 L 104.75 56.25 L 104.00 58.25 L 103.75 59.75 L 103.75 61.75 L 103.50 63.75 L 103.25 64.50 L 102.75 65.25 L 102.75 67.00 L 102.50 68.25 L 101.75 70.25 L 101.75 71.75 L 101.25 73.25 L 101.25 74.75 L 100.75 76.25 L 100.75 77.75 L 100.50 79.00 L 100.25 80.25 L 99.75 81.00 L 99.75 83.00 L 99.50 84.25 L 98.75 86.00 L 98.75 87.75 L 98.25 89.00 L 98.25 90.75 L 97.50 94.75 L 97.25 96.25 L 96.75 97.00 L 96.75 98.75 L 96.50 100.00 L 96.00 101.00 L 95.75 102.00 L 95.75 103.50 L 95.25 105.00 L 95.25 106.75 L 94.25 110.75 L 94.25 112.25 L 93.75 113.00 L 93.75 114.75 L 93.50 116.00 L 92.75 118.25 L 91.75 123.75 L 91.50 125.75 L 91.50 126.50 L 91.75 127.00 L 95.00 127.50 L 99.75 127.25 L 100.50 127.25 L 104.00 127.50 L 108.25 127.25 L 109.00 126.50 L 109.00 124.75 L 109.50 123.50 L 109.50 121.75 L 110.00 120.75 L 110.25 119.50 L 110.25 118.00 L 111.00 116.25 L 111.25 115.00 L 111.25 112.75 L 111.75 112.00 L 112.00 110.50 L 112.50 108.00 L 112.75 106.50 L 112.75 105.00 L 113.00 103.50 L 113.25 102.25 L 113.75 101.25 L 114.00 100.25 L 114.25 97.25 L 114.75 96.25 L 115.00 95.00 L 115.25 91.75 L 115.75 90.50 L 115.75 89.25 L 116.00 88.50 L 116.25 88.00 L 117.00 87.25 L 123.00 87.25 L 123.75 87.50 L 124.25 88.00 L 124.75 88.25 L 125.50 88.25 L 126.00 88.50 L 126.50 88.75 L 126.75 89.00 L 127.00 89.50 L 127.75 91.00 L 128.00 92.25 L 128.00 96.00 L 127.50 97.50 L 127.50 99.50 L 127.25 101.00 L 126.75 102.25 L 126.75 103.75 L 126.00 105.25 L 125.75 107.00 L 125.75 108.25 L 125.50 109.75 L 124.75 112.50 L 124.75 114.25 L 124.50 115.75 L 124.00 116.75 L 123.75 117.75 L 123.50 121.00 L 123.50 124.00 L 124.00 127.25 L 125.75 127.50 L 139.25 127.50 L 141.00 127.25 L 141.50 126.75 L 141.50 126.00 L 141.25 118.25 L 141.50 116.75 L 142.00 115.50 L 142.25 114.00 L 142.25 112.50 L 142.50 111.00 L 143.00 109.75 L 143.25 107.25 L 143.50 105.75 L 144.25 104.00 L 144.25 102.25 L 144.50 100.75 L 145.00 99.50 L 145.25 98.00 L 145.50 96.25 L 145.50 87.25 L 145.25 86.00 L 145.00 85.25 L 144.50 84.00 L 144.25 83.50 L 144.00 83.00 L 143.25 82.25 L 143.00 81.25 L 142.75 80.75 L 142.50 80.50 L 141.25 79.50 L 141.00 79.00 L 141.00 77.75 L 141.75 77.00 L 142.25 77.00 L 143.00 76.50 L 146.00 73.50 L 147.25 72.00 L 147.50 71.50 L 147.50 71.00 L 148.25 70.25 L 149.00 68.50 L 150.00 67.25 L 150.25 66.00 L 151.00 64.75 L 151.25 64.00 L 151.25 62.75 L 152.00 60.75 L 152.25 58.50 L 152.50 57.25 L 153.00 56.50 L 153.25 55.50 L 153.25 53.75 L 154.00 51.00 L 154.25 49.50 L 154.50 46.25 L 154.50 40.75 L 154.25 39.25 L 154.00 38.25 L 153.25 36.00 L 153.00 35.50 L 152.75 35.00 L 151.75 33.25 L 149.50 31.00 L 148.75 30.50 L 147.50 30.00 L 146.25 29.00 L 145.50 28.75 L 144.75 28.75 L 143.50 28.00 L 142.25 27.75 L 141.00 27.75 L 140.00 27.25 L 137.25 27.00 Z M 125.50 43.25 L 132.75 43.25 L 133.75 43.50 L 134.50 43.75 L 135.25 44.25 L 135.75 44.75 L 136.00 45.25 L 136.25 45.75 L 136.50 46.50 L 136.50 51.00 L 135.75 53.50 L 135.75 55.25 L 135.50 56.50 L 135.00 57.00 L 135.00 58.50 L 134.25 62.25 L 134.00 63.75 L 133.75 64.50 L 133.25 65.75 L 133.00 66.50 L 132.25 67.50 L 131.50 68.50 L 130.75 69.25 L 130.00 69.75 L 129.25 70.25 L 128.75 70.50 L 128.25 70.75 L 127.50 71.00 L 126.25 71.25 L 120.50 71.25 L 119.75 70.50 L 119.50 70.00 L 119.50 69.50 L 120.00 68.50 L 120.25 67.25 L 120.25 65.25 L 121.00 64.00 L 121.00 61.75 L 121.25 60.00 L 122.00 57.50 L 122.00 56.00 L 122.25 54.50 L 122.75 53.75 L 123.00 53.00 L 123.25 51.25 L 123.25 49.25 L 124.00 47.50 L 124.25 46.00 L 124.25 44.25 L 125.00 43.50 Z" fill="#000000" fill-rule="evenodd"/>
  <path d="M 186.25 26.00 L 184.50 26.25 L 183.25 26.50 L 182.00 27.00 L 180.75 27.00 L 179.75 27.25 L 178.50 27.75 L 177.25 28.25 L 175.75 29.00 L 172.75 30.75 L 170.50 32.75 L 169.75 33.00 L 169.25 34.00 L 168.00 35.00 L 167.25 36.00 L 166.25 37.25 L 165.75 38.00 L 165.00 39.25 L 164.75 40.25 L 163.75 41.25 L 163.75 42.25 L 162.75 44.00 L 162.25 46.00 L 161.50 47.25 L 161.25 48.25 L 161.00 49.25 L 160.75 50.75 L 160.75 52.00 L 160.50 53.50 L 160.00 54.75 L 160.00 56.00 L 159.50 57.25 L 159.50 58.75 L 159.25 59.75 L 158.75 60.75 L 158.50 62.00 L 158.50 63.25 L 158.25 64.50 L 157.75 65.50 L 157.75 67.75 L 157.50 69.25 L 157.00 70.50 L 156.75 73.00 L 156.50 74.50 L 155.75 76.25 L 155.50 79.50 L 154.75 81.75 L 154.75 83.50 L 154.50 85.00 L 154.00 86.25 L 153.50 89.00 L 153.50 90.50 L 153.25 91.50 L 152.75 92.50 L 152.50 93.50 L 152.25 96.25 L 151.75 97.50 L 151.75 99.50 L 151.50 101.00 L 151.00 102.50 L 151.00 104.00 L 150.50 105.50 L 150.50 112.50 L 150.75 115.00 L 151.00 116.00 L 151.50 117.25 L 152.25 118.50 L 152.50 120.00 L 153.75 121.25 L 154.00 122.00 L 155.50 123.75 L 155.75 124.00 L 156.25 124.25 L 157.00 124.50 L 157.75 125.25 L 158.50 125.75 L 161.75 127.25 L 162.50 127.50 L 163.50 127.50 L 164.50 128.00 L 166.25 128.25 L 169.75 128.50 L 172.25 128.50 L 176.00 128.25 L 177.25 128.00 L 179.50 127.50 L 180.50 127.25 L 181.25 127.00 L 184.00 125.75 L 184.50 125.50 L 185.50 124.75 L 186.50 124.50 L 187.00 124.25 L 189.25 122.50 L 190.00 122.00 L 190.50 121.50 L 190.50 121.25 L 191.00 120.75 L 191.75 120.25 L 192.00 120.25 L 192.25 120.00 L 192.50 119.25 L 193.50 118.25 L 193.75 117.50 L 194.75 116.50 L 195.25 115.50 L 196.00 114.25 L 196.25 113.75 L 196.25 113.25 L 196.50 112.75 L 197.25 112.00 L 197.50 110.75 L 198.25 109.50 L 199.00 107.25 L 199.25 105.00 L 199.75 104.25 L 199.75 102.75 L 200.00 101.50 L 200.25 100.50 L 201.00 98.50 L 201.00 96.75 L 201.25 95.25 L 201.50 93.75 L 202.00 92.50 L 202.25 91.25 L 202.25 89.25 L 203.00 87.25 L 203.00 85.75 L 203.25 84.50 L 203.50 83.50 L 204.00 82.50 L 204.25 81.25 L 204.50 80.00 L 204.50 77.75 L 205.25 75.25 L 205.25 73.25 L 205.75 72.50 L 206.00 71.00 L 206.00 69.75 L 206.25 68.50 L 207.00 66.75 L 207.25 65.50 L 207.50 64.00 L 207.50 62.00 L 208.25 59.50 L 208.25 57.50 L 208.75 56.75 L 209.00 56.00 L 209.00 53.75 L 209.25 52.75 L 209.75 51.75 L 210.00 50.75 L 210.25 48.00 L 210.25 41.25 L 210.00 39.50 L 209.75 38.75 L 209.00 37.50 L 208.75 36.25 L 208.50 35.75 L 208.25 35.25 L 207.75 34.75 L 207.50 34.25 L 207.50 33.75 L 207.00 32.75 L 206.00 32.00 L 206.00 31.75 L 205.25 31.00 L 203.75 29.75 L 203.00 29.25 L 202.25 28.75 L 200.25 27.75 L 199.00 27.25 L 198.25 27.00 L 197.25 26.75 L 195.00 26.25 L 193.50 26.00 Z M 186.25 42.00 L 188.75 42.00 L 189.75 42.25 L 190.25 42.50 L 190.75 42.75 L 191.50 43.50 L 192.00 44.25 L 192.25 44.75 L 192.50 45.25 L 192.75 46.25 L 192.75 48.25 L 192.50 50.25 L 191.75 52.50 L 191.50 53.75 L 191.25 55.00 L 191.00 56.50 L 190.75 59.50 L 190.50 60.75 L 190.00 62.00 L 189.75 65.00 L 189.50 66.50 L 188.75 68.25 L 188.50 69.75 L 188.50 71.00 L 188.25 72.25 L 187.75 73.25 L 187.75 75.50 L 187.50 77.00 L 186.75 79.25 L 186.50 82.50 L 185.75 84.25 L 185.50 85.50 L 185.50 86.75 L 185.25 88.25 L 184.75 89.25 L 184.75 91.25 L 183.50 96.75 L 183.50 98.50 L 182.75 100.50 L 182.50 101.50 L 182.25 104.25 L 181.75 106.00 L 181.50 106.75 L 180.50 108.75 L 179.50 109.75 L 179.50 110.00 L 178.75 110.75 L 178.00 111.25 L 177.50 111.50 L 177.00 111.75 L 176.25 112.00 L 175.25 112.25 L 172.00 112.25 L 171.00 112.00 L 170.25 111.75 L 169.25 111.25 L 168.75 110.75 L 168.50 110.25 L 168.25 109.25 L 168.25 108.00 L 168.00 107.75 L 168.00 106.75 L 168.25 104.25 L 168.50 102.00 L 168.75 100.75 L 169.25 99.50 L 169.25 97.75 L 170.00 95.75 L 170.00 93.75 L 170.25 92.50 L 171.00 90.75 L 171.00 89.00 L 171.25 87.75 L 172.00 85.25 L 172.25 83.75 L 172.25 82.50 L 172.50 81.00 L 173.00 80.00 L 173.00 78.00 L 173.25 77.00 L 174.00 75.25 L 174.00 73.75 L 174.50 72.25 L 174.50 70.50 L 175.25 67.75 L 175.25 66.50 L 175.50 65.00 L 176.00 64.25 L 176.00 62.00 L 176.25 60.75 L 176.75 60.00 L 177.00 59.25 L 177.00 57.25 L 177.50 56.25 L 177.50 54.75 L 178.50 50.50 L 178.50 49.00 L 179.00 47.75 L 179.25 47.25 L 179.50 46.75 L 180.25 46.00 L 180.75 44.75 L 181.75 43.75 L 182.75 43.00 L 183.25 42.75 L 183.75 42.50 L 184.50 42.25 Z" fill="#000000" fill-rule="evenodd"/>
</svg>
